#!OML:ASF F:\VICON\USERDATA\INSTALL\rory3\rory3.ASF
:FULLY-SPECIFIED
:DEGREES
860
root 0.205583 17.8905 6.99025 -183.222 4.31031 539.586
lowerback 20.4574 -1.55132 -2.17706
upperback 1.20703 -1.70114 4.01537
thorax -9.96452 -0.426137 6.14873
lowerneck -10.5934 0.751144 -0.177772
upperneck 21.0246 3.57635 -6.65578
head 8.40598 1.41456 -1.77001
rclavicle -1.49089e-014 -3.81667e-014
rhumerus -33.8566 -10.4455 -55.6058
rradius 115.486
rwrist 15.8831
rhand -6.50816 3.8987
rfingers 7.12502
rthumb 19.3438 -25.1592
lclavicle -1.49089e-014 -3.81667e-014
lhumerus -48.7523 8.74352 80.9091
lradius 44.0886
lwrist 5.20106
lhand -8.71827 51.5636
lfingers 7.12502
lthumb 17.2176 80.8208
rfemur -15.6695 12.211 18.077
rtibia 39.8705
rfoot -18.8527 1.4032
rtoes 9.67863
lfemur -8.52818 -6.21131 -24.2969
ltibia 31.9862
lfoot -16.6437 5.64664
ltoes -5.30567
861
root 0.189354 17.8938 6.99659 -183.236 4.17719 539.382
lowerback 20.6414 -1.55113 -2.32868
upperback 1.14465 -1.75157 3.94411
thorax -10.1273 -0.441665 6.18434
lowerneck -10.4561 0.859721 -0.00126794
upperneck 20.8582 3.71206 -6.82245
head 8.33523 1.48226 -1.8413
rclavicle 2.40529e-014 0
rhumerus -34.4727 -8.91843 -56.507
rradius 116.042
rwrist 17.5534
rhand -8.01026 4.02437
rfingers 7.12502
rthumb 17.899 -25.172
lclavicle 2.40529e-014 0
lhumerus -48.7136 8.66339 80.8414
lradius 44.7394
lwrist 5.80402
lhand -8.89381 51.6894
lfingers 7.12502
lthumb 17.0487 80.9613
rfemur -15.9541 12.2224 17.8912
rtibia 40.3407
rfoot -19.0532 0.641666
rtoes 9.09599
lfemur -8.47498 -6.16335 -24.5538
ltibia 31.7821
lfoot -16.4939 5.55968
ltoes -4.80693
862
root 0.170587 17.8907 6.99306 -183.281 4.04761 539.062
lowerback 20.5311 -1.53979 -2.51321
upperback 1.25155 -1.79844 3.79889
thorax -9.93905 -0.468865 6.13049
lowerneck -10.7378 0.832677 0.0319005
upperneck 20.9758 3.65894 -6.76101
head 8.42384 1.45266 -1.83163
rclavicle 3.02153e-014 -2.22639e-014
rhumerus -34.6669 -7.85588 -57.6043
rradius 116.002
rwrist 18.9422
rhand -9.48343 4.43184
rfingers 7.12502
rthumb 16.481 -24.8881
lclavicle 3.02153e-014 -2.22639e-014
lhumerus -48.2305 8.54872 80.7678
lradius 45.1293
lwrist 6.29776
lhand -8.98117 51.6941
lfingers 7.12502
lthumb 16.9646 80.9732
rfemur -16.1078 12.0834 17.5181
rtibia 40.7841
rfoot -19.2908 0.298535
rtoes 8.85293
lfemur -8.24047 -6.05338 -24.9791
ltibia 31.4537
lfoot -16.4305 5.45952
ltoes -4.98647
863
root 0.150721 17.8967 6.99152 -183.33 3.94942 538.846
lowerback 20.4588 -1.54374 -2.58458
upperback 1.32494 -1.83622 3.66955
thorax -9.81418 -0.493552 6.03015
lowerneck -10.8584 0.740969 0.0589296
upperneck 21.0326 3.51601 -6.7188
head 8.45889 1.38493 -1.8373
rclavicle 5.56597e-015 3.18055e-015
rhumerus -34.7232 -6.9683 -58.8111
rradius 115.528
rwrist 20.3272
rhand -10.9894 4.82133
rfingers 7.12502
rthumb 15.0307 -24.6131
lclavicle 5.56597e-015 3.18055e-015
lhumerus -47.8134 8.38684 80.7006
lradius 45.5853
lwrist 6.89243
lhand -9.25475 52.1173
lfingers 7.12502
lthumb 16.7012 81.4189
rfemur -16.2754 11.9163 17.303
rtibia 41.1967
rfoot -19.5889 -0.325367
rtoes 8.22826
lfemur -8.04724 -6.15666 -25.3195
ltibia 31.2324
lfoot -16.4692 5.47868
ltoes -4.18515
864
root 0.135747 17.909 6.99345 -183.369 3.81939 538.808
lowerback 20.4931 -1.5742 -2.56788
upperback 1.33145 -1.87807 3.62296
thorax -9.82291 -0.515253 5.98143
lowerneck -10.8146 0.709008 0.0437537
upperneck 21.1527 3.46493 -6.5966
head 8.48661 1.37334 -1.79968
rclavicle 9.93923e-016 -8.74653e-015
rhumerus -35.0812 -6.03103 -59.9183
rradius 114.91
rwrist 21.8223
rhand -12.4147 5.3584
rfingers 7.12502
rthumb 13.6574 -24.1735
lclavicle 9.93923e-016 -8.74653e-015
lhumerus -47.6557 8.2837 80.6269
lradius 46.1057
lwrist 7.49558
lhand -9.452 52.6541
lfingers 7.12502
lthumb 16.5113 81.9715
rfemur -16.3415 11.9464 17.3177
rtibia 41.5327
rfoot -19.7943 -0.984102
rtoes 8.39934
lfemur -7.94318 -6.18993 -25.4324
ltibia 31.1237
lfoot -16.5621 5.38471
ltoes -3.97974
865
root 0.128668 17.8943 7.0027 -183.242 3.74849 538.815
lowerback 20.4652 -1.58121 -2.60372
upperback 1.29782 -1.899 3.627
thorax -9.84124 -0.524146 6.01289
lowerneck -10.6225 0.761036 -0.0928602
upperneck 20.983 3.50419 -6.44133
head 8.39051 1.40096 -1.72044
rclavicle -5.96354e-016 4.69132e-014
rhumerus -35.4927 -5.23124 -60.9205
rradius 114.141
rwrist 23.2912
rhand -13.5503 5.88201
rfingers 7.12502
rthumb 12.5627 -23.7203
lclavicle -5.96354e-016 4.69132e-014
lhumerus -47.5121 8.21764 80.6113
lradius 46.6339
lwrist 7.92697
lhand -9.69912 52.7544
lfingers 7.12502
lthumb 16.2734 82.0915
rfemur -16.6073 11.926 17.3792
rtibia 41.8824
rfoot -19.983 -1.66726
rtoes 9.13842
lfemur -8.1955 -6.30552 -25.4493
ltibia 31.2329
lfoot -16.6018 5.38637
ltoes -3.01611
866
root 0.120525 17.8893 7.01179 -183.173 3.73396 538.961
lowerback 20.5398 -1.58308 -2.50445
upperback 1.28887 -1.8707 3.66518
thorax -9.89799 -0.510191 5.99441
lowerneck -10.6884 0.759945 -0.255476
upperneck 20.966 3.48663 -6.27087
head 8.39113 1.3918 -1.63765
rclavicle 2.5842e-014 9.54166e-015
rhumerus -35.6236 -4.85356 -61.829
rradius 112.993
rwrist 25.2278
rhand -14.7386 6.6661
rfingers 7.12502
rthumb 11.4169 -23.0031
lclavicle 2.5842e-014 9.54166e-015
lhumerus -47.4149 8.1077 80.6065
lradius 47.248
lwrist 8.30055
lhand -9.93598 52.8982
lfingers 7.12502
lthumb 16.0453 82.2538
rfemur -16.7768 11.4829 17.7193
rtibia 42.2136
rfoot -20.099 -2.92431
rtoes 6.59848
lfemur -8.39916 -6.30664 -25.2971
ltibia 31.3614
lfoot -16.5742 5.34299
ltoes -2.49896
867
root 0.110858 17.8871 7.02285 -183.247 3.72045 539.274
lowerback 20.7751 -1.61025 -2.24124
upperback 1.35783 -1.81574 3.75301
thorax -9.96315 -0.483104 5.93287
lowerneck -10.7742 0.720905 -0.377657
upperneck 20.8596 3.4216 -6.21793
head 8.3665 1.35112 -1.60583
rclavicle 9.34288e-015 -7.07673e-014
rhumerus -35.6217 -4.60164 -62.8034
rradius 111.536
rwrist 26.8691
rhand -17.0165 7.22687
rfingers 7.12502
rthumb 9.21946 -22.5516
lclavicle 9.34288e-015 -7.07673e-014
lhumerus -47.2084 8.09304 80.5891
lradius 47.7898
lwrist 8.769
lhand -10.3988 52.5016
lfingers 7.12502
lthumb 15.5996 81.8926
rfemur -16.8639 10.9319 18.2921
rtibia 42.6867
rfoot -20.2637 -4.02503
rtoes 4.05819
lfemur -8.50108 -6.31178 -24.9861
ltibia 31.5956
lfoot -16.6647 5.34773
ltoes -2.39235
868
root 0.0989558 17.8965 7.0316 -183.163 3.69943 539.152
lowerback 20.8048 -1.57079 -2.35809
upperback 1.30788 -1.80711 3.69295
thorax -10.0345 -0.476264 5.93535
lowerneck -10.6439 0.676998 -0.344206
upperneck 20.8399 3.33799 -6.16046
head 8.3319 1.32351 -1.60145
rclavicle -1.94809e-014 1.59028e-015
rhumerus -35.9932 -4.15083 -63.8681
rradius 110.024
rwrist 27.6919
rhand -19.9179 7.37203
rfingers 7.12502
rthumb 6.41904 -22.5107
lclavicle -1.94809e-014 1.59028e-015
lhumerus -47.0538 8.02309 80.5119
lradius 48.3027
lwrist 9.15312
lhand -10.8647 52.0431
lfingers 7.12502
lthumb 15.1509 81.4684
rfemur -17.1563 10.4289 18.2615
rtibia 43.1576
rfoot -20.3567 -4.4719
rtoes 3.80257
lfemur -8.70179 -6.27393 -25.152
ltibia 31.693
lfoot -16.7311 5.31279
ltoes -1.88164
869
root 0.0864412 17.883 7.03986 -183.109 3.72547 538.909
lowerback 20.858 -1.49097 -2.58692
upperback 1.2529 -1.77996 3.59351
thorax -10.1243 -0.457278 5.95497
lowerneck -10.4921 0.656936 -0.141132
upperneck 20.8338 3.29808 -6.26363
head 8.30417 1.31684 -1.67472
rclavicle 2.54444e-014 3.89618e-014
rhumerus -36.3349 -3.78013 -64.9253
rradius 108.293
rwrist 28.1253
rhand -22.2634 7.82112
rfingers 7.12502
rthumb 4.15443 -22.1181
lclavicle 2.54444e-014 3.89618e-014
lhumerus -46.7942 7.84233 80.464
lradius 48.8299
lwrist 9.442
lhand -10.6797 52.4201
lfingers 7.12502
lthumb 15.3291 81.832
rfemur -17.508 9.81091 18.1086
rtibia 43.6777
rfoot -20.2717 -4.53094
rtoes 4.13056
lfemur -8.81725 -6.26691 -25.4715
ltibia 31.725
lfoot -16.6933 5.36673
ltoes -1.74662
870
root 0.0750134 17.8818 7.04066 -183.084 3.78431 538.963
lowerback 20.742 -1.43142 -2.56122
upperback 1.37754 -1.68025 3.62331
thorax -9.93235 -0.414138 5.93285
lowerneck -10.6542 0.61906 -0.15911
upperneck 20.8507 3.24021 -6.2445
head 8.33717 1.28277 -1.67109
rclavicle 4.11484e-014 1.98785e-014
rhumerus -36.3179 -3.70803 -65.7976
rradius 106.343
rwrist 28.4519
rhand -23.6307 8.78065
rfingers 7.12502
rthumb 2.83401 -21.1803
lclavicle 4.11484e-014 1.98785e-014
lhumerus -45.9919 7.71673 80.6048
lradius 48.9391
lwrist 9.58162
lhand -10.5905 53.1455
lfingers 7.12502
lthumb 15.4149 82.5508
rfemur -17.6873 9.24362 18.3249
rtibia 44.1692
rfoot -20.4094 -4.52852
rtoes 3.91834
lfemur -8.84343 -6.36475 -25.4722
ltibia 31.7459
lfoot -16.748 5.56679
ltoes -1.08162
